<svg width="19" height="15" viewBox="0 0 19 15" fill="none" xmlns="http://www.w3.org/2000/svg">
<path d="M14.9064 7.08058C16.0689 6.91725 16.9639 5.92058 16.9664 4.71308C16.9664 3.52308 16.0989 2.53641 14.9614 2.34975" stroke="#838383" stroke-width="1.25" stroke-linecap="round" stroke-linejoin="round"/>
<path d="M16.4404 9.87524C17.5662 10.0436 18.352 10.4377 18.352 11.2502C18.352 11.8094 17.982 12.1727 17.3837 12.4011" stroke="#838383" stroke-width="1.25" stroke-linecap="round" stroke-linejoin="round"/>
<path fill-rule="evenodd" clip-rule="evenodd" d="M9.90553 10.2198C7.2272 10.2198 4.9397 10.6257 4.9397 12.2465C4.9397 13.8665 7.21303 14.284 9.90553 14.284C12.5839 14.284 14.8705 13.8823 14.8705 12.2607C14.8705 10.639 12.598 10.2198 9.90553 10.2198Z" stroke="#838383" stroke-width="1.25" stroke-linecap="round" stroke-linejoin="round"/>
<path fill-rule="evenodd" clip-rule="evenodd" d="M9.90555 7.90658C11.663 7.90658 13.088 6.48241 13.088 4.72408C13.088 2.96658 11.663 1.54158 9.90555 1.54158C8.14805 1.54158 6.72305 2.96658 6.72305 4.72408C6.71638 6.47575 8.13055 7.90075 9.88221 7.90658H9.90555Z" stroke="#838383" stroke-width="1.25" stroke-linecap="round" stroke-linejoin="round"/>
<path d="M4.90399 7.08058C3.74066 6.91725 2.84649 5.92058 2.84399 4.71308C2.84399 3.52308 3.71149 2.53641 4.84899 2.34975" stroke="#838383" stroke-width="1.25" stroke-linecap="round" stroke-linejoin="round"/>
<path d="M3.36992 9.87524C2.24409 10.0436 1.45825 10.4377 1.45825 11.2502C1.45825 11.8094 1.82825 12.1727 2.42659 12.4011" stroke="#838383" stroke-width="1.25" stroke-linecap="round" stroke-linejoin="round"/>
</svg>
