<svg width="16" height="16" viewBox="0 0 16 16" fill="none" xmlns="http://www.w3.org/2000/svg">
<path d="M12.5088 1.33331H11.3609V5.21822C11.3609 5.49117 11.085 5.62612 10.8712 5.28342L10.113 4.07034L9.3548 5.28342C9.13948 5.62461 8.86502 5.49117 8.86502 5.21822V1.33331H5.0165C4.08618 1.33581 3.33334 2.0907 3.33334 3.02102V12.9835C3.33585 13.912 4.08796 14.6641 5.0165 14.6666H12.5103C12.7153 14.6663 12.9117 14.5845 13.0562 14.4392C13.2015 14.2946 13.2833 14.0982 13.2837 13.8933V2.10817C13.2829 1.68056 12.9364 1.33415 12.5088 1.33331ZM12.6529 12.6651L5.341 12.6742C5.18163 12.6851 5.05483 12.812 5.04383 12.9713C5.03166 13.1476 5.16472 13.3004 5.341 13.3125H12.6529L12.6514 13.9009C12.6514 13.936 12.6378 13.9697 12.6135 13.9949C12.5882 14.0193 12.5545 14.0329 12.5194 14.0328H5.0165C4.44074 14.0328 3.974 13.5661 3.974 12.9903C3.974 12.4146 4.44074 11.9478 5.0165 11.9478H12.5194C12.5928 11.9487 12.652 12.0079 12.6529 12.0813V12.6651Z" fill="#A2A5B1"/>
</svg>
