<svg width="20" height="16" viewBox="0 0 20 16" fill="none" xmlns="http://www.w3.org/2000/svg">
<path fill-rule="evenodd" clip-rule="evenodd" d="M16 8C18.2091 8 20 6.2091 20 4C20 1.79086 18.2091 0 16 0C14.1362 0 12.5701 1.27477 12.126 3H1C0.44772 3 0 3.44772 0 4C0 4.55229 0.44772 5 1 5H12.126C12.5701 6.7252 14.1362 8 16 8ZM14 4C14 5.10457 14.8954 6 16 6C17.1046 6 18 5.10457 18 4C18 2.89543 17.1046 2 16 2C14.8954 2 14 2.89543 14 4ZM0 12C0 9.7909 1.79086 8 4 8C5.86384 8 7.42994 9.2748 7.87398 11H19C19.5523 11 20 11.4477 20 12C20 12.5523 19.5523 13 19 13H7.87398C7.42994 14.7252 5.86384 16 4 16C1.79086 16 0 14.2091 0 12ZM6 12C6 10.8954 5.10457 10 4 10C2.89543 10 2 10.8954 2 12C2 13.1046 2.89543 14 4 14C5.10457 14 6 13.1046 6 12Z" fill="#838383"/>
</svg>
