<svg width="24" height="24" viewBox="0 0 24 24" fill="none" xmlns="http://www.w3.org/2000/svg">
<path d="M6.13794 19.931C6.13794 21.0717 7.06622 22 8.2069 22C9.34759 22 10.2759 21.0717 10.2759 19.931C10.2759 18.7903 9.34759 17.8621 8.2069 17.8621C7.06622 17.8621 6.13794 18.7903 6.13794 19.931ZM8.89656 19.931C8.89656 20.311 8.5869 20.6207 8.2069 20.6207C7.8269 20.6207 7.51725 20.311 7.51725 19.931C7.51725 19.551 7.8269 19.2414 8.2069 19.2414C8.5869 19.2414 8.89656 19.551 8.89656 19.931Z" fill="#A2A5B1"/>
<path d="M18.5517 19.931C18.5517 18.7903 17.6235 17.8621 16.4828 17.8621C15.3421 17.8621 14.4138 18.7903 14.4138 19.931C14.4138 21.0717 15.3421 22 16.4828 22C17.6235 22 18.5517 21.0717 18.5517 19.931ZM15.7931 19.931C15.7931 19.551 16.1028 19.2414 16.4828 19.2414C16.8628 19.2414 17.1724 19.551 17.1724 19.931C17.1724 20.311 16.8628 20.6207 16.4828 20.6207C16.1028 20.6207 15.7931 20.311 15.7931 19.931Z" fill="#A2A5B1"/>
<path d="M4.13793 3.37931C4.22345 4.19379 5.17517 13.2338 5.32207 14.6303C5.4331 15.6862 6.31793 16.4828 7.38 16.4828H18.1269C19.0959 16.4828 19.9469 15.7945 20.1503 14.8469L21.8069 7.11655C21.8945 6.7069 21.7938 6.28552 21.5303 5.96069C21.2669 5.63517 20.8759 5.44828 20.4572 5.44828H5.74276L5.44483 2.61793C5.40759 2.26621 5.11172 2 4.75862 2H2.68966C2.30897 2 2 2.30897 2 2.68966C2 3.07034 2.30897 3.37931 2.68966 3.37931H4.13793ZM20.4572 6.82759L18.8014 14.5579C18.7331 14.8738 18.4497 15.1034 18.1262 15.1034H7.38C7.02552 15.1034 6.73103 14.8379 6.69379 14.4862L5.88759 6.82759H20.4572Z" fill="#A2A5B1"/>
</svg>
