<svg width="14" height="14" viewBox="0 0 14 14" fill="none" xmlns="http://www.w3.org/2000/svg">
<path d="M7.00001 13.6666C10.681 13.6666 13.6667 10.6809 13.6667 6.99998C13.6667 3.31902 10.681 0.333313 7.00001 0.333313C3.31905 0.333313 0.333344 3.31902 0.333344 6.99998C0.333344 10.6809 3.31905 13.6666 7.00001 13.6666ZM6.52381 3.19046C6.52381 2.92855 6.7381 2.71426 7.00001 2.71426C7.26192 2.71426 7.47622 2.92855 7.47622 3.19046V6.77141L9.6786 8.53332C9.88337 8.69761 9.91668 8.99759 9.75239 9.20236C9.65952 9.31902 9.52145 9.38093 9.38096 9.38093C9.27619 9.38093 9.17142 9.34758 9.08335 9.27616L6.70241 7.37142C6.5905 7.28093 6.52385 7.14523 6.52385 6.99998V3.19046H6.52381Z" fill="#A2A5B1"/>
</svg>
