<svg width="15" height="20" viewBox="0 0 15 20" fill="none" xmlns="http://www.w3.org/2000/svg">
<path d="M13.7856 0H8.30947H2.52856C1.13779 0.00255951 0.00916661 1.12589 0 2.51665V17.4832C0.00916661 18.874 1.13779 19.9973 2.52856 19.9999H13.7928C14.1021 20.0045 14.4003 19.8853 14.6213 19.6689C14.8322 19.4523 14.9501 19.1618 14.9499 18.8594V1.16428C14.9486 0.521782 14.4281 0.00130952 13.7856 0ZM8.79042 0.952375H11.588V5.41901L10.5952 3.83569C10.5549 3.76867 10.4989 3.71254 10.4318 3.67236C10.2063 3.53706 9.91381 3.61016 9.77851 3.83569L8.79042 5.41187V0.952375ZM0.964279 2.51665C0.968208 1.65433 1.66624 0.956303 2.52856 0.952375H7.83804V5.80949C7.82013 6.19609 8.06286 6.54698 8.4309 6.66662C8.84994 6.79281 9.22613 6.52139 9.44994 6.16425L10.1904 4.97378L10.9309 6.16425C11.1523 6.51662 11.5285 6.78805 11.9594 6.66662C12.3258 6.54746 12.568 6.19913 12.5523 5.81425V0.96428H13.7928C13.9027 0.965589 13.9915 1.05434 13.9928 1.16428V14.9734C13.9267 14.9622 13.8598 14.9567 13.7928 14.957H2.52856C1.96052 14.9569 1.40916 15.1491 0.964279 15.5023V2.51665ZM13.9928 17.0118L3.01427 17.0237C2.75129 17.0237 2.53808 17.2369 2.53808 17.4999C2.53808 17.7629 2.75129 17.9761 3.01427 17.9761L13.9928 17.9642V18.8499C13.9932 18.9032 13.9728 18.9545 13.9356 18.9927C13.8974 19.0298 13.846 19.0504 13.7928 19.0499H2.52856C1.66398 19.0499 0.963089 18.349 0.963089 17.4844C0.963089 16.6198 1.66398 15.9189 2.52856 15.9189H13.7928C13.9027 15.9203 13.9915 16.009 13.9928 16.1189V17.0118Z" fill="#A2A5B1"/>
</svg>
