<svg width="20" height="20" viewBox="0 0 20 20" fill="none" xmlns="http://www.w3.org/2000/svg">
<g clip-path="url(#clip0_57_1385)">
<path d="M1.04169 10.0003L1.04169 9.99999C1.04169 8.76581 1.27652 7.59778 1.74956 6.50223C2.21728 5.419 2.85458 4.47048 3.66208 3.66238L3.66224 3.66221C4.47042 2.85404 5.41909 2.21663 6.50253 1.74941C7.59792 1.27705 8.76575 1.04225 9.99972 1.04166L10 1.04166C11.2342 1.04166 12.4022 1.27649 13.4978 1.74953C14.581 2.21724 15.5295 2.85455 16.3376 3.66205L16.3378 3.66221C17.1459 4.47033 17.7836 5.41891 18.2513 6.50224C18.7244 7.59779 18.9589 8.76583 18.9584 9.99999L1.04169 10.0003ZM1.04169 10.0003C1.04228 11.2343 1.27708 12.4021 1.74944 13.4975C2.21663 14.5808 2.85399 15.5295 3.66208 16.3376C4.47027 17.1464 5.41899 17.7841 6.50253 18.2514C7.59792 18.7238 8.76576 18.9583 9.99972 18.9583L1.04169 10.0003ZM16.338 16.3376L16.3378 16.3378C15.5297 17.1459 14.5811 17.7835 13.4978 18.2513C12.4022 18.7243 11.2342 18.9589 10 18.9583L16.338 16.3376ZM16.338 16.3376C17.1455 15.5295 17.7828 14.581 18.2505 13.4977C18.7235 12.4023 18.9583 11.2344 18.9584 10.0003L16.338 16.3376ZM9.95835 13.5417L9.95954 13.5417C10.0901 13.5414 10.1756 13.5793 10.2558 13.6597C10.337 13.741 10.375 13.8277 10.375 13.9583L10.375 13.9595C10.3753 14.0883 10.3379 14.1741 10.2564 14.2555C10.1749 14.3371 10.0885 14.375 9.95835 14.375L9.95716 14.375C9.82836 14.3752 9.74259 14.3378 9.66113 14.2564C9.57975 14.175 9.54181 14.0887 9.54169 13.959C9.54204 13.8291 9.58014 13.7423 9.66174 13.6605C9.74246 13.5795 9.82826 13.5417 9.95835 13.5417ZM10.16 11.1667H9.85592C9.88342 10.8313 9.93169 10.6383 9.9757 10.5503C10.0065 10.4887 10.0892 10.3673 10.2631 10.1772C10.4295 9.99536 10.6565 9.77536 10.9492 9.51567C11.2357 9.27643 11.4817 9.01103 11.6823 8.71817C11.9156 8.37761 12.0417 7.99513 12.0417 7.58332C12.0417 7.11545 11.8573 6.70235 11.5449 6.36019C11.1671 5.94651 10.6395 5.79166 10.0834 5.79166C9.46097 5.79166 8.88626 5.97793 8.48927 6.45377C8.37594 6.58962 8.27307 6.72856 8.18415 6.87048L7.96735 6.78507C8.11954 6.53589 8.3161 6.30867 8.56023 6.10225C8.91622 5.80124 9.40469 5.62499 10.0834 5.62499C10.7427 5.62499 11.2837 5.79911 11.7351 6.12938C12.1255 6.41506 12.3334 6.81458 12.3334 7.41666C12.3334 7.7773 12.2523 8.04801 12.1189 8.25725C11.9423 8.53408 11.6913 8.84078 11.3559 9.17687C10.8736 9.63287 10.4853 10.0746 10.3255 10.4783C10.244 10.6843 10.191 10.9159 10.16 11.1667Z" stroke="#838383" stroke-width="1.25"/>
</g>
<defs>
<clipPath id="clip0_57_1385">
<rect width="20" height="20" fill="white"/>
</clipPath>
</defs>
</svg>
