<svg width="24" height="15" viewBox="0 0 24 15" fill="none" xmlns="http://www.w3.org/2000/svg">
<path d="M14.5574 7.36318C14.5574 11.4298 11.2986 14.7264 7.27869 14.7264C3.25878 14.7264 0 11.4298 0 7.36318C0 3.29661 3.25878 0 7.27869 0C11.2986 0 14.5574 3.29661 14.5574 7.36318Z" fill="#ED0006"/>
<path d="M24 7.36318C24 11.4298 20.7412 14.7264 16.7213 14.7264C12.7014 14.7264 9.44263 11.4298 9.44263 7.36318C9.44263 3.29661 12.7014 0 16.7213 0C20.7412 0 24 3.29661 24 7.36318Z" fill="#0099DF"/>
<path fill-rule="evenodd" clip-rule="evenodd" d="M12 12.9674C13.5649 11.6169 14.5573 9.60727 14.5573 7.36321C14.5573 5.11916 13.5649 3.10958 12 1.75903C10.435 3.10958 9.44263 5.11916 9.44263 7.36321C9.44263 9.60727 10.435 11.6169 12 12.9674Z" fill="#6C6BBD"/>
</svg>
