<svg width="20" height="20" viewBox="0 0 20 20" fill="none" xmlns="http://www.w3.org/2000/svg">
<g clip-path="url(#clip0_57_1387)">
<path d="M0.916687 20.144V18.3333V3.33333C0.916687 2.67428 1.16034 2.09156 1.62681 1.62589C2.09256 1.16093 2.67444 0.917467 3.33244 0.916668L3.33335 0.916667L16.6667 0.916668C17.3257 0.916668 17.9085 1.16028 18.3745 1.62634C18.8406 2.09243 19.0842 2.67519 19.0834 3.33424M0.916687 20.144L18.3334 3.33333M0.916687 20.144L2.19702 18.8637L5.31068 15.75L0.916687 20.144ZM19.0834 3.33424L18.3334 3.33333M19.0834 3.33424V3.33333H18.3334M19.0834 3.33424V13.3333C19.0834 13.9919 18.8403 14.5746 18.375 15.0407C17.9091 15.5074 17.326 15.7506 16.6667 15.75M18.3334 3.33333V13.3333C18.3334 13.7917 18.1703 14.1842 17.8442 14.5108C17.5181 14.8375 17.1256 15.0006 16.6667 15V15.75M16.6667 15.75C16.6664 15.75 16.6661 15.75 16.6658 15.75L16.6667 15.75ZM10.3891 9.75466L10 9.51854L9.61093 9.75466L8.69766 10.3089L8.93877 9.27442L9.04157 8.83338L8.69914 8.53704L7.88614 7.83349L8.95588 7.74759L9.41039 7.7111L9.58718 7.2908L10 6.30934L10.4129 7.2908L10.5896 7.7111L11.0442 7.74759L12.1139 7.83349L11.3009 8.53704L10.9585 8.83338L11.0613 9.27442L11.3024 10.3089L10.3891 9.75466Z" stroke="#838383" stroke-width="1.5"/>
</g>
<defs>
<clipPath id="clip0_57_1387">
<rect width="20" height="20" fill="white"/>
</clipPath>
</defs>
</svg>
