<svg width="20" height="20" viewBox="0 0 20 20" fill="none" xmlns="http://www.w3.org/2000/svg">
<path d="M18.8771 17.587L15.8821 14.592C17.3298 12.8135 18.0392 10.5468 17.8637 8.26029C17.6881 5.97372 16.6411 3.84192 14.9388 2.30523C13.2365 0.76854 11.009 -0.0556448 8.71649 0.00292032C6.42395 0.0614854 4.24147 0.998327 2.61987 2.61993C0.998266 4.24153 0.0614244 6.42401 0.00285929 8.71655C-0.0557058 11.0091 0.768479 13.2366 2.30517 14.9389C3.84186 16.6411 5.97366 17.6882 8.26022 17.8637C10.5468 18.0393 12.8134 17.3299 14.592 15.8821L17.587 18.8771C17.7592 19.046 17.9908 19.1406 18.232 19.1406C18.4732 19.1406 18.7048 19.046 18.8771 18.8771C19.0473 18.7056 19.1428 18.4737 19.1428 18.2321C19.1428 17.9904 19.0473 17.7586 18.8771 17.587ZM1.82716 8.95007C1.82716 7.5413 2.24491 6.16417 3.02758 4.99283C3.81025 3.82148 4.92268 2.90853 6.22421 2.36942C7.52574 1.83031 8.95791 1.68925 10.3396 1.96409C11.7213 2.23892 12.9905 2.91731 13.9866 3.91346C14.9828 4.90961 15.6612 6.17877 15.936 7.56047C16.2108 8.94217 16.0698 10.3743 15.5307 11.6759C14.9915 12.9774 14.0786 14.0898 12.9072 14.8725C11.7359 15.6552 10.3588 16.0729 8.95001 16.0729C7.06185 16.0699 5.2519 15.3184 3.91676 13.9833C2.58163 12.6482 1.83021 10.8382 1.82716 8.95007Z" fill="#838383"/>
</svg>
