<svg width="17" height="18" viewBox="0 0 17 18" fill="none" xmlns="http://www.w3.org/2000/svg">
<path fill-rule="evenodd" clip-rule="evenodd" d="M15.3389 5.35299L14.8202 4.45292C14.3814 3.69131 13.409 3.42858 12.6463 3.86558V3.86558C12.2833 4.07943 11.8501 4.14011 11.4423 4.03422C11.0345 3.92833 10.6855 3.66458 10.4724 3.30112C10.3353 3.0701 10.2616 2.80698 10.2588 2.53835V2.53835C10.2712 2.10766 10.1087 1.69031 9.80839 1.38137C9.50807 1.07243 9.09549 0.898199 8.66463 0.898377H7.61962C7.19751 0.898372 6.7928 1.06657 6.49504 1.36577C6.19728 1.66496 6.03102 2.07047 6.03305 2.49258V2.49258C6.02054 3.36408 5.31044 4.06399 4.43885 4.0639C4.17022 4.06111 3.90709 3.98743 3.67607 3.85032V3.85032C2.91343 3.41332 1.94097 3.67606 1.50216 4.43766L0.945329 5.35299C0.507049 6.11364 0.766207 7.08549 1.52504 7.5269V7.5269C2.01829 7.81168 2.32215 8.33797 2.32215 8.90753C2.32215 9.47709 2.01829 10.0034 1.52504 10.2882V10.2882C0.767171 10.7266 0.50773 11.6961 0.945329 12.4544V12.4544L1.47165 13.3621C1.67725 13.7331 2.02221 14.0069 2.4302 14.1228C2.83819 14.2388 3.27557 14.1874 3.64556 13.98V13.98C4.00927 13.7678 4.4427 13.7096 4.84949 13.8185C5.25628 13.9273 5.60274 14.1942 5.81184 14.5597C5.94896 14.7907 6.02263 15.0539 6.02542 15.3225V15.3225C6.02542 16.2029 6.73917 16.9167 7.61962 16.9167H8.66463C9.54211 16.9167 10.2546 16.2076 10.2588 15.3301V15.3301C10.2568 14.9067 10.4241 14.5 10.7235 14.2006C11.0229 13.9012 11.4296 13.7339 11.853 13.7359C12.121 13.7431 12.3831 13.8165 12.6158 13.9495V13.9495C13.3765 14.3878 14.3483 14.1286 14.7897 13.3698V13.3698L15.3389 12.4544C15.5515 12.0896 15.6098 11.655 15.501 11.247C15.3922 10.8389 15.1252 10.4911 14.7592 10.2805V10.2805C14.3932 10.0699 14.1262 9.72213 14.0174 9.3141C13.9086 8.90607 13.9669 8.4715 14.1795 8.10662C14.3177 7.86526 14.5179 7.66514 14.7592 7.5269V7.5269C15.5135 7.08572 15.772 6.11956 15.3389 5.36062V5.36062V5.35299Z" stroke="#838383" stroke-width="1.25" stroke-linecap="round" stroke-linejoin="round"/>
<circle cx="8.14602" cy="8.90743" r="2.1968" stroke="#838383" stroke-width="1.25" stroke-linecap="round" stroke-linejoin="round"/>
</svg>
