<svg width="25" height="8" viewBox="0 0 25 8" fill="none" xmlns="http://www.w3.org/2000/svg">
<path fill-rule="evenodd" clip-rule="evenodd" d="M6.03776 7.75825H3.94772L2.38046 1.69237C2.30607 1.41334 2.14812 1.16667 1.91578 1.0504C1.33595 0.75823 0.697017 0.525705 0 0.408431V0.174895H3.36688C3.83155 0.174895 4.18006 0.525705 4.23815 0.933129L5.05133 5.30865L7.14035 0.174895H9.17229L6.03776 7.75825ZM10.334 7.75825H8.36012L9.98547 0.174895H11.9593L10.334 7.75825ZM14.513 2.27571C14.5711 1.86728 14.9196 1.63374 15.3262 1.63374C15.9652 1.57511 16.6612 1.69238 17.242 1.98354L17.5905 0.35081C17.0097 0.117274 16.3707 0 15.7909 0C13.8751 0 12.4811 1.05041 12.4811 2.50824C12.4811 3.61728 13.4685 4.19961 14.1655 4.55042C14.9196 4.90021 15.2101 5.13375 15.152 5.48355C15.152 6.00825 14.5711 6.24178 13.9913 6.24178C13.2943 6.24178 12.5973 6.06688 11.9593 5.77471L11.6108 7.40845C12.3079 7.69962 13.0619 7.81689 13.759 7.81689C15.9071 7.87451 17.242 6.82512 17.242 5.25001C17.242 3.26647 14.513 3.15021 14.513 2.27571ZM24.15 7.75825L22.5827 0.174895H20.8993C20.5508 0.174895 20.2023 0.408431 20.0861 0.75823L17.1839 7.75825H19.2159L19.6214 6.65022H22.1181L22.3504 7.75825H24.15ZM21.1897 2.21708L21.7695 5.07512H20.1442L21.1897 2.21708Z" fill="#172B85"/>
</svg>
